<svg width="416" height="51" viewBox="0 0 416 51" fill="none" xmlns="http://www.w3.org/2000/svg">
<path d="M39.3941 32.5303C39.3941 29.6322 39.7216 27.3495 40.3766 25.6821C41.0317 23.9948 42.0937 22.5358 43.5626 21.3051C45.0315 20.0744 46.1431 18.9529 46.8974 17.9406C47.6715 16.9083 48.0586 15.7769 48.0586 14.5462C48.0586 11.5488 46.7683 10.0502 44.1878 10.0502C42.9968 10.0502 42.0341 10.4869 41.2997 11.3603C40.5652 12.2337 40.1781 13.4147 40.1384 14.9035H30.0745C30.1142 10.9335 31.3647 7.84681 33.8261 5.64346C36.2875 3.42026 39.7414 2.30865 44.1878 2.30865C48.6144 2.30865 52.0385 3.33093 54.4602 5.37548C56.9018 7.42004 58.1226 10.3281 58.1226 14.0996C58.1226 15.7471 57.795 17.2458 57.14 18.5956C56.4849 19.9454 55.4329 21.325 53.9838 22.7343L50.5597 25.9203C49.587 26.8532 48.9121 27.8159 48.535 28.8084C48.1578 29.7811 47.9494 31.0217 47.9097 32.5303H39.3941Z" fill="#0E0E0E"/>
<path d="M53.507 32.6379C55.9911 31.1453 58.1165 30.2503 59.8831 29.953C61.6668 29.6455 63.4643 29.8044 65.2758 30.4296C67.0872 31.0548 68.6211 31.43 69.8773 31.5552C71.1608 31.6872 72.33 31.4362 73.3849 30.8023C75.9542 29.2586 76.5743 27.3808 75.2452 25.1688C74.6318 24.1479 73.7616 23.5476 72.6347 23.3679C71.5078 23.1882 70.2961 23.4647 68.9995 24.1975L63.8162 15.571C67.2396 13.5603 70.5295 13.0425 73.6858 14.0175C76.8592 14.9823 79.5909 17.3703 81.881 21.1817C84.1608 24.976 85.0481 28.4375 84.5429 31.5663C84.0478 34.7122 82.1839 37.2563 78.9511 39.1988C77.5389 40.0474 76.0856 40.5385 74.5912 40.6722C73.0968 40.8059 71.3724 40.6147 69.4181 40.0985L64.9236 38.8043C63.623 38.4511 62.4502 38.3684 61.4052 38.5563C60.3772 38.734 59.2064 39.1943 57.8929 39.9372L53.507 32.6379Z" fill="#3345A4"/>
<path d="M30.705 39.8147C28.2208 38.3221 26.4328 36.8656 25.3409 35.4453C24.232 34.0149 23.5284 32.3531 23.23 30.4602C22.9317 28.5672 22.5428 27.0368 22.0636 25.8688C21.5775 24.6736 20.807 23.7591 19.7521 23.1252C17.1829 21.5815 15.2337 21.9156 13.9047 24.1275C13.2913 25.1484 13.1698 26.1985 13.5401 27.2779C13.9105 28.3573 14.7235 29.2974 15.9792 30.0981L10.7959 38.7246C7.41338 36.6459 5.41166 33.9842 4.79073 30.7396C4.15279 27.4847 4.97885 23.9516 7.26892 20.1403C9.54877 16.346 12.1886 13.9375 15.1884 12.9147C18.1984 11.8749 21.3198 12.3262 24.5526 14.2687C25.9648 15.1172 27.0808 16.1699 27.9004 17.4265C28.72 18.6832 29.3607 20.2956 29.8225 22.2635L30.7898 26.8394C31.0885 28.1537 31.5661 29.228 32.2226 30.0625C32.8621 30.8867 33.8182 31.7043 35.0909 32.5153L30.705 39.8147Z" fill="#B74B4B"/>
<path d="M40.1218 37.6152C39.0697 38.5482 38.5437 39.7491 38.5437 41.218C38.5437 42.6869 39.0697 43.8978 40.1218 44.8506C41.1937 45.7835 42.5236 46.25 44.1116 46.25C45.6996 46.25 47.0197 45.7835 48.0717 44.8506C49.1436 43.8978 49.6796 42.6869 49.6796 41.218C49.6796 39.7491 49.1436 38.5482 48.0717 37.6152C47.0197 36.6624 45.6996 36.186 44.1116 36.186C42.5236 36.186 41.1937 36.6624 40.1218 37.6152Z" fill="#0E0E0E"/>
<path d="M120.277 30.6172L123.722 12.4062H128.978L123.3 38H117.991L113.825 20.8789L109.659 38H104.351L98.6731 12.4062H103.929L107.392 30.582L111.611 12.4062H116.075L120.277 30.6172ZM130.306 28.3145C130.306 26.4277 130.669 24.7461 131.395 23.2695C132.122 21.793 133.165 20.6504 134.524 19.8418C135.895 19.0332 137.483 18.6289 139.288 18.6289C141.854 18.6289 143.946 19.4141 145.563 20.9844C147.192 22.5547 148.1 24.6875 148.288 27.3828L148.323 28.6836C148.323 31.6016 147.509 33.9453 145.88 35.7148C144.251 37.4727 142.065 38.3516 139.323 38.3516C136.581 38.3516 134.39 37.4727 132.749 35.7148C131.12 33.957 130.306 31.5664 130.306 28.543V28.3145ZM135.386 28.6836C135.386 30.4883 135.725 31.8711 136.405 32.832C137.085 33.7812 138.057 34.2559 139.323 34.2559C140.554 34.2559 141.515 33.7871 142.206 32.8496C142.897 31.9004 143.243 30.3887 143.243 28.3145C143.243 26.5449 142.897 25.1738 142.206 24.2012C141.515 23.2285 140.542 22.7422 139.288 22.7422C138.046 22.7422 137.085 23.2285 136.405 24.2012C135.725 25.1621 135.386 26.6562 135.386 28.6836ZM162.993 36.0664C161.739 37.5898 160.004 38.3516 157.79 38.3516C155.75 38.3516 154.192 37.7656 153.114 36.5938C152.047 35.4219 151.502 33.7051 151.479 31.4434V18.9805H156.559V31.2676C156.559 33.248 157.461 34.2383 159.266 34.2383C160.989 34.2383 162.172 33.6406 162.817 32.4453V18.9805H167.915V38H163.133L162.993 36.0664ZM177.258 38H172.16V11H177.258V38ZM180.818 28.3496C180.818 25.3848 181.48 23.0234 182.804 21.2656C184.14 19.5078 185.963 18.6289 188.271 18.6289C190.123 18.6289 191.652 19.3203 192.859 20.7031V11H197.957V38H193.369L193.123 35.9785C191.857 37.5605 190.228 38.3516 188.236 38.3516C185.998 38.3516 184.199 37.4727 182.84 35.7148C181.492 33.9453 180.818 31.4902 180.818 28.3496ZM185.898 28.7188C185.898 30.5 186.209 31.8652 186.83 32.8145C187.451 33.7637 188.353 34.2383 189.537 34.2383C191.107 34.2383 192.215 33.5762 192.859 32.252V24.7461C192.226 23.4219 191.131 22.7598 189.572 22.7598C187.123 22.7598 185.898 24.7461 185.898 28.7188Z" fill="#B74B4B"/>
<path d="M220.317 23.9375L225.643 12.4062H231.409L223.007 28.7188V38H217.645V28.7188L209.243 12.4062H215.026L220.317 23.9375ZM231.612 28.3145C231.612 26.4277 231.975 24.7461 232.702 23.2695C233.428 21.793 234.471 20.6504 235.831 19.8418C237.202 19.0332 238.79 18.6289 240.594 18.6289C243.161 18.6289 245.252 19.4141 246.87 20.9844C248.498 22.5547 249.407 24.6875 249.594 27.3828L249.629 28.6836C249.629 31.6016 248.815 33.9453 247.186 35.7148C245.557 37.4727 243.372 38.3516 240.629 38.3516C237.887 38.3516 235.696 37.4727 234.055 35.7148C232.426 33.957 231.612 31.5664 231.612 28.543V28.3145ZM236.692 28.6836C236.692 30.4883 237.032 31.8711 237.711 32.832C238.391 33.7812 239.364 34.2559 240.629 34.2559C241.86 34.2559 242.821 33.7871 243.512 32.8496C244.204 31.9004 244.549 30.3887 244.549 28.3145C244.549 26.5449 244.204 25.1738 243.512 24.2012C242.821 23.2285 241.848 22.7422 240.594 22.7422C239.352 22.7422 238.391 23.2285 237.711 24.2012C237.032 25.1621 236.692 26.6562 236.692 28.6836ZM264.299 36.0664C263.045 37.5898 261.311 38.3516 259.096 38.3516C257.057 38.3516 255.498 37.7656 254.42 36.5938C253.354 35.4219 252.809 33.7051 252.785 31.4434V18.9805H257.865V31.2676C257.865 33.248 258.768 34.2383 260.572 34.2383C262.295 34.2383 263.479 33.6406 264.123 32.4453V18.9805H269.221V38H264.439L264.299 36.0664Z" fill="#0E0E0E"/>
<path d="M292.126 28.6309H287.925V38H282.652V12.4062H292.161C295.185 12.4062 297.517 13.0801 299.157 14.4277C300.798 15.7754 301.618 17.6797 301.618 20.1406C301.618 21.8867 301.238 23.3457 300.476 24.5176C299.726 25.6777 298.583 26.6035 297.048 27.2949L302.585 37.7539V38H296.925L292.126 28.6309ZM287.925 24.3594H292.179C293.503 24.3594 294.529 24.0254 295.255 23.3574C295.982 22.6777 296.345 21.7461 296.345 20.5625C296.345 19.3555 295.999 18.4062 295.308 17.7148C294.628 17.0234 293.579 16.6777 292.161 16.6777H287.925V24.3594ZM316.481 38C316.247 37.543 316.077 36.9746 315.972 36.2949C314.741 37.666 313.141 38.3516 311.173 38.3516C309.309 38.3516 307.763 37.8125 306.532 36.7344C305.313 35.6562 304.704 34.2969 304.704 32.6562C304.704 30.6406 305.448 29.0938 306.936 28.0156C308.436 26.9375 310.598 26.3926 313.423 26.3809H315.761V25.291C315.761 24.4121 315.532 23.709 315.075 23.1816C314.63 22.6543 313.921 22.3906 312.948 22.3906C312.093 22.3906 311.419 22.5957 310.927 23.0059C310.446 23.416 310.206 23.9785 310.206 24.6934H305.126C305.126 23.5918 305.466 22.5723 306.145 21.6348C306.825 20.6973 307.786 19.9648 309.028 19.4375C310.27 18.8984 311.665 18.6289 313.212 18.6289C315.556 18.6289 317.413 19.2207 318.784 20.4043C320.167 21.5762 320.858 23.2285 320.858 25.3613V33.6055C320.87 35.4102 321.122 36.7754 321.614 37.7012V38H316.481ZM312.28 34.4668C313.03 34.4668 313.722 34.3027 314.354 33.9746C314.987 33.6348 315.456 33.1836 315.761 32.6211V29.3516H313.862C311.319 29.3516 309.966 30.2305 309.802 31.9883L309.784 32.2871C309.784 32.9199 310.007 33.4414 310.452 33.8516C310.897 34.2617 311.507 34.4668 312.28 34.4668ZM330.993 14.3047V18.9805H334.245V22.707H330.993V32.1992C330.993 32.9023 331.127 33.4062 331.397 33.7109C331.666 34.0156 332.182 34.168 332.944 34.168C333.506 34.168 334.004 34.127 334.438 34.0449V37.8945C333.442 38.1992 332.416 38.3516 331.362 38.3516C327.799 38.3516 325.983 36.5527 325.913 32.9551V22.707H323.135V18.9805H325.913V14.3047H330.993ZM342.182 21.0547C343.529 19.4375 345.223 18.6289 347.262 18.6289C351.387 18.6289 353.479 21.0254 353.537 25.8184V38H348.457V25.959C348.457 24.8691 348.223 24.0664 347.754 23.5508C347.285 23.0234 346.506 22.7598 345.416 22.7598C343.928 22.7598 342.85 23.334 342.182 24.4824V38H337.102V11H342.182V21.0547ZM366.273 38.3516C363.484 38.3516 361.211 37.4961 359.453 35.7852C357.707 34.0742 356.834 31.7949 356.834 28.9473V28.4551C356.834 26.5449 357.203 24.8398 357.941 23.3398C358.679 21.8281 359.722 20.668 361.07 19.8594C362.429 19.0391 363.976 18.6289 365.711 18.6289C368.312 18.6289 370.357 19.4492 371.845 21.0898C373.345 22.7305 374.095 25.0566 374.095 28.0684V30.1426H361.984C362.148 31.3848 362.64 32.3809 363.461 33.1309C364.293 33.8809 365.341 34.2559 366.607 34.2559C368.564 34.2559 370.093 33.5469 371.195 32.1289L373.691 34.9238C372.929 36.002 371.898 36.8457 370.597 37.4551C369.297 38.0527 367.855 38.3516 366.273 38.3516ZM365.693 22.7422C364.685 22.7422 363.865 23.082 363.232 23.7617C362.611 24.4414 362.213 25.4141 362.037 26.6797H369.103V26.2754C369.08 25.1504 368.775 24.2832 368.189 23.6738C367.603 23.0527 366.771 22.7422 365.693 22.7422ZM387.833 23.7441C387.142 23.6504 386.532 23.6035 386.005 23.6035C384.083 23.6035 382.823 24.2539 382.226 25.5547V38H377.146V18.9805H381.945L382.085 21.248C383.105 19.502 384.517 18.6289 386.322 18.6289C386.884 18.6289 387.411 18.7051 387.904 18.8574L387.833 23.7441Z" fill="#3345A4"/>
</svg>
