<svg width="343" height="98" viewBox="0 0 343 98" fill="none" xmlns="http://www.w3.org/2000/svg">
<path d="M166.365 30.2217C166.365 27.3236 166.693 25.0408 167.348 23.3734C168.003 21.6862 169.065 20.2272 170.534 18.9965C172.002 17.7658 173.114 16.6442 173.868 15.6319C174.643 14.5997 175.03 13.4682 175.03 12.2375C175.03 9.24019 173.739 7.74151 171.159 7.74151C169.968 7.74151 169.005 8.17821 168.271 9.05161C167.536 9.92501 167.149 11.1061 167.109 12.5948H157.045C157.085 8.62484 158.336 5.53816 160.797 3.3348C163.259 1.1116 166.712 0 171.159 0C175.585 0 179.01 1.02228 181.431 3.06683C183.873 5.11138 185.094 8.01941 185.094 11.7909C185.094 13.4385 184.766 14.9371 184.111 16.2869C183.456 17.6367 182.404 19.0163 180.955 20.4257L177.531 23.6116C176.558 24.5446 175.883 25.5073 175.506 26.4998C175.129 27.4724 174.92 28.7131 174.881 30.2217H166.365Z" fill="#0E0E0E"/>
<path d="M180.478 30.3292C182.962 28.8366 185.088 27.9416 186.854 27.6443C188.638 27.3368 190.435 27.4957 192.247 28.1209C194.058 28.7462 195.592 29.1214 196.848 29.2465C198.132 29.3785 199.301 29.1275 200.356 28.4937C202.925 26.9499 203.545 25.0721 202.216 22.8602C201.603 21.8393 200.733 21.239 199.606 21.0593C198.479 20.8796 197.267 21.1561 195.971 21.8888L190.787 13.2623C194.211 11.2516 197.5 10.7338 200.657 11.7088C203.83 12.6736 206.562 15.0617 208.852 18.873C211.132 22.6673 212.019 26.1289 211.514 29.2577C211.019 32.4035 209.155 34.9477 205.922 36.8901C204.51 37.7387 203.057 38.2298 201.562 38.3635C200.068 38.4973 198.343 38.306 196.389 37.7898L191.895 36.4956C190.594 36.1424 189.421 36.0597 188.376 36.2476C187.348 36.4253 186.177 36.8856 184.864 37.6286L180.478 30.3292Z" fill="#3345A4"/>
<path d="M157.676 37.506C155.192 36.0134 153.404 34.5569 152.312 33.1367C151.203 31.7062 150.499 30.0445 150.201 28.1515C149.903 26.2586 149.514 24.7281 149.035 23.5601C148.549 22.3649 147.778 21.4504 146.723 20.8166C144.154 19.2728 142.205 19.6069 140.876 21.8188C140.262 22.8397 140.141 23.8898 140.511 24.9692C140.882 26.0486 141.695 26.9887 142.95 27.7895L137.767 36.416C134.384 34.3373 132.383 31.6756 131.762 28.4309C131.124 25.176 131.95 21.643 134.24 17.8316C136.52 14.0373 139.16 11.6288 142.159 10.606C145.169 9.56622 148.291 10.0176 151.524 11.96C152.936 12.8086 154.052 13.8612 154.871 15.1179C155.691 16.3746 156.332 17.9869 156.794 19.9548L157.761 24.5308C158.06 25.845 158.537 26.9193 159.194 27.7538C159.833 28.578 160.789 29.3957 162.062 30.2067L157.676 37.506Z" fill="#B74B4B"/>
<path d="M167.093 35.3066C166.041 36.2395 165.515 37.4405 165.515 38.9094C165.515 40.3783 166.041 41.5891 167.093 42.5419C168.165 43.4749 169.495 43.9413 171.083 43.9413C172.671 43.9413 173.991 43.4749 175.043 42.5419C176.115 41.5891 176.651 40.3783 176.651 38.9094C176.651 37.4405 176.115 36.2395 175.043 35.3066C173.991 34.3538 172.671 33.8774 171.083 33.8774C169.495 33.8774 168.165 34.3538 167.093 35.3066Z" fill="#0E0E0E"/>
<path d="M48.5762 76.9999L52.0215 58.7889H57.2773L51.5996 84.3827H46.291L42.125 67.2616L37.959 84.3827H32.6504L26.9727 58.7889H32.2285L35.6914 76.9647L39.9102 58.7889H44.375L48.5762 76.9999ZM58.6051 74.6971C58.6051 72.8104 58.9684 71.1288 59.6949 69.6522C60.4215 68.1757 61.4645 67.0331 62.8238 66.2245C64.1949 65.4159 65.7828 65.0116 67.5875 65.0116C70.1539 65.0116 72.2457 65.7968 73.8629 67.3671C75.4918 68.9374 76.4 71.0702 76.5875 73.7655L76.6227 75.0663C76.6227 77.9843 75.8082 80.328 74.1793 82.0975C72.5504 83.8553 70.3648 84.7343 67.6227 84.7343C64.8805 84.7343 62.6891 83.8553 61.0484 82.0975C59.4195 80.3397 58.6051 77.9491 58.6051 74.9257V74.6971ZM63.6852 75.0663C63.6852 76.871 64.025 78.2538 64.7047 79.2147C65.3844 80.1639 66.357 80.6385 67.6227 80.6385C68.8531 80.6385 69.8141 80.1698 70.5055 79.2323C71.1969 78.2831 71.5426 76.7714 71.5426 74.6971C71.5426 72.9276 71.1969 71.5565 70.5055 70.5839C69.8141 69.6112 68.8414 69.1249 67.5875 69.1249C66.3453 69.1249 65.3844 69.6112 64.7047 70.5839C64.025 71.5448 63.6852 73.0389 63.6852 75.0663ZM91.2922 82.4491C90.0383 83.9725 88.3039 84.7343 86.0891 84.7343C84.05 84.7343 82.4914 84.1483 81.4133 82.9764C80.3469 81.8046 79.802 80.0878 79.7785 77.826V65.3632H84.8586V77.6503C84.8586 79.6307 85.7609 80.621 87.5656 80.621C89.2883 80.621 90.4719 80.0233 91.1164 78.828V65.3632H96.2141V84.3827H91.4328L91.2922 82.4491ZM105.557 84.3827H100.46V57.3827H105.557V84.3827ZM109.118 74.7323C109.118 71.7675 109.78 69.4061 111.104 67.6483C112.44 65.8905 114.262 65.0116 116.571 65.0116C118.422 65.0116 119.952 65.703 121.159 67.0858V57.3827H126.256V84.3827H121.668L121.422 82.3612C120.157 83.9432 118.528 84.7343 116.536 84.7343C114.297 84.7343 112.498 83.8553 111.139 82.0975C109.791 80.328 109.118 77.8729 109.118 74.7323ZM114.198 75.1014C114.198 76.8827 114.508 78.2479 115.129 79.1971C115.75 80.1464 116.653 80.621 117.836 80.621C119.407 80.621 120.514 79.9589 121.159 78.6346V71.1288C120.526 69.8046 119.43 69.1425 117.871 69.1425C115.422 69.1425 114.198 71.1288 114.198 75.1014Z" fill="#B74B4B"/>
<path d="M148.617 70.3202L153.943 58.7889H159.709L151.306 75.1014V84.3827H145.945V75.1014L137.543 58.7889H143.326L148.617 70.3202ZM159.911 74.6971C159.911 72.8104 160.275 71.1288 161.001 69.6522C161.728 68.1757 162.771 67.0331 164.13 66.2245C165.501 65.4159 167.089 65.0116 168.894 65.0116C171.46 65.0116 173.552 65.7968 175.169 67.3671C176.798 68.9374 177.706 71.0702 177.894 73.7655L177.929 75.0663C177.929 77.9843 177.114 80.328 175.486 82.0975C173.857 83.8553 171.671 84.7343 168.929 84.7343C166.187 84.7343 163.995 83.8553 162.355 82.0975C160.726 80.3397 159.911 77.9491 159.911 74.9257V74.6971ZM164.991 75.0663C164.991 76.871 165.331 78.2538 166.011 79.2147C166.691 80.1639 167.663 80.6385 168.929 80.6385C170.159 80.6385 171.12 80.1698 171.812 79.2323C172.503 78.2831 172.849 76.7714 172.849 74.6971C172.849 72.9276 172.503 71.5565 171.812 70.5839C171.12 69.6112 170.148 69.1249 168.894 69.1249C167.652 69.1249 166.691 69.6112 166.011 70.5839C165.331 71.5448 164.991 73.0389 164.991 75.0663ZM192.598 82.4491C191.345 83.9725 189.61 84.7343 187.395 84.7343C185.356 84.7343 183.798 84.1483 182.72 82.9764C181.653 81.8046 181.108 80.0878 181.085 77.826V65.3632H186.165V77.6503C186.165 79.6307 187.067 80.621 188.872 80.621C190.595 80.621 191.778 80.0233 192.423 78.828V65.3632H197.52V84.3827H192.739L192.598 82.4491Z" fill="#0E0E0E"/>
<path d="M220.426 75.0135H216.225V84.3827H210.951V58.7889H220.461C223.484 58.7889 225.816 59.4628 227.457 60.8104C229.098 62.1581 229.918 64.0624 229.918 66.5233C229.918 68.2694 229.537 69.7284 228.775 70.9003C228.025 72.0604 226.883 72.9862 225.348 73.6776L230.885 84.1366V84.3827H225.225L220.426 75.0135ZM216.225 70.7421H220.479C221.803 70.7421 222.828 70.4081 223.555 69.7401C224.281 69.0604 224.645 68.1288 224.645 66.9452C224.645 65.7382 224.299 64.7889 223.607 64.0975C222.928 63.4061 221.879 63.0604 220.461 63.0604H216.225V70.7421ZM244.781 84.3827C244.546 83.9257 244.377 83.3573 244.271 82.6776C243.041 84.0487 241.441 84.7343 239.472 84.7343C237.609 84.7343 236.062 84.1952 234.832 83.1171C233.613 82.0389 233.004 80.6796 233.004 79.0389C233.004 77.0233 233.748 75.4764 235.236 74.3983C236.736 73.3202 238.898 72.7753 241.722 72.7635H244.06V71.6737C244.06 70.7948 243.832 70.0917 243.375 69.5643C242.929 69.037 242.22 68.7733 241.248 68.7733C240.392 68.7733 239.718 68.9784 239.226 69.3885C238.746 69.7987 238.505 70.3612 238.505 71.076H233.425C233.425 69.9745 233.765 68.955 234.445 68.0175C235.125 67.08 236.086 66.3475 237.328 65.8202C238.57 65.2811 239.964 65.0116 241.511 65.0116C243.855 65.0116 245.712 65.6034 247.084 66.787C248.466 67.9589 249.158 69.6112 249.158 71.744V79.9882C249.17 81.7928 249.421 83.1581 249.914 84.0839V84.3827H244.781ZM240.58 80.8495C241.33 80.8495 242.021 80.6854 242.654 80.3573C243.287 80.0175 243.755 79.5663 244.06 79.0038V75.7343H242.162C239.619 75.7343 238.265 76.6132 238.101 78.371L238.084 78.6698C238.084 79.3026 238.306 79.8241 238.752 80.2343C239.197 80.6444 239.806 80.8495 240.58 80.8495ZM259.292 60.6874V65.3632H262.544V69.0897H259.292V78.5819C259.292 79.285 259.427 79.7889 259.696 80.0936C259.966 80.3983 260.482 80.5507 261.243 80.5507C261.806 80.5507 262.304 80.5096 262.738 80.4276V84.2772C261.741 84.5819 260.716 84.7343 259.661 84.7343C256.099 84.7343 254.282 82.9354 254.212 79.3378V69.0897H251.435V65.3632H254.212V60.6874H259.292ZM270.481 67.4374C271.829 65.8202 273.522 65.0116 275.561 65.0116C279.686 65.0116 281.778 67.4081 281.837 72.201V84.3827H276.757V72.3417C276.757 71.2518 276.522 70.4491 276.054 69.9335C275.585 69.4061 274.805 69.1425 273.716 69.1425C272.227 69.1425 271.149 69.7167 270.481 70.8651V84.3827H265.401V57.3827H270.481V67.4374ZM294.573 84.7343C291.784 84.7343 289.51 83.8788 287.752 82.1678C286.006 80.4569 285.133 78.1776 285.133 75.33V74.8378C285.133 72.9276 285.502 71.2225 286.241 69.7225C286.979 68.2108 288.022 67.0507 289.37 66.2421C290.729 65.4218 292.276 65.0116 294.01 65.0116C296.612 65.0116 298.657 65.8319 300.145 67.4725C301.645 69.1132 302.395 71.4393 302.395 74.451V76.5253H290.284C290.448 77.7675 290.94 78.7635 291.76 79.5135C292.592 80.2635 293.641 80.6385 294.907 80.6385C296.864 80.6385 298.393 79.9296 299.495 78.5116L301.991 81.3065C301.229 82.3846 300.198 83.2284 298.897 83.8378C297.596 84.4354 296.155 84.7343 294.573 84.7343ZM293.993 69.1249C292.985 69.1249 292.164 69.4647 291.532 70.1444C290.911 70.8241 290.512 71.7968 290.336 73.0624H297.403V72.6581C297.379 71.5331 297.075 70.6659 296.489 70.0565C295.903 69.4354 295.071 69.1249 293.993 69.1249ZM316.133 70.1268C315.441 70.0331 314.832 69.9862 314.305 69.9862C312.383 69.9862 311.123 70.6366 310.525 71.9374V84.3827H305.445V65.3632H310.244L310.385 67.6307C311.404 65.8846 312.816 65.0116 314.621 65.0116C315.184 65.0116 315.711 65.0878 316.203 65.2401L316.133 70.1268Z" fill="#3345A4"/>
</svg>
