<svg width="90" height="47" viewBox="0 0 90 47" fill="none" xmlns="http://www.w3.org/2000/svg">
<path d="M39.394 30.2217C39.394 27.3236 39.7215 25.0408 40.3766 23.3734C41.0316 21.6862 42.0936 20.2272 43.5625 18.9965C45.0314 17.7658 46.143 16.6442 46.8973 15.6319C47.6715 14.5997 48.0585 13.4682 48.0585 12.2375C48.0585 9.24019 46.7683 7.74151 44.1878 7.74151C42.9968 7.74151 42.034 8.17821 41.2996 9.05161C40.5651 9.92501 40.1781 11.1061 40.1384 12.5948H30.0744C30.1141 8.62484 31.3647 5.53816 33.8261 3.3348C36.2875 1.1116 39.7414 0 44.1878 0C48.6143 0 52.0385 1.02228 54.4602 3.06683C56.9017 5.11138 58.1225 8.01941 58.1225 11.7909C58.1225 13.4385 57.795 14.9371 57.1399 16.2869C56.4849 17.6367 55.4328 19.0163 53.9838 20.4257L50.5596 23.6116C49.587 24.5446 48.9121 25.5073 48.5349 26.4998C48.1578 27.4724 47.9494 28.7131 47.9097 30.2217H39.394Z" fill="#0E0E0E"/>
<path d="M53.5069 30.3292C55.9911 28.8366 58.1165 27.9416 59.8831 27.6444C61.6667 27.3368 63.4643 27.4957 65.2757 28.1209C67.0872 28.7462 68.621 29.1214 69.8773 29.2465C71.1608 29.3785 72.33 29.1275 73.3849 28.4937C75.9541 26.9499 76.5742 25.0721 75.2452 22.8602C74.6317 21.8393 73.7616 21.239 72.6347 21.0593C71.5077 20.8796 70.296 21.1561 68.9994 21.8888L63.8161 13.2623C67.2395 11.2516 70.5294 10.7338 73.6858 11.7088C76.8591 12.6736 79.5909 15.0617 81.8809 18.873C84.1608 22.6673 85.0481 26.1289 84.5428 29.2577C84.0478 32.4035 82.1839 34.9477 78.951 36.8902C77.5388 37.7387 76.0855 38.2298 74.5911 38.3636C73.0967 38.4973 71.3724 38.306 69.418 37.7898L64.9236 36.4956C63.6229 36.1424 62.4501 36.0597 61.4051 36.2476C60.3772 36.4253 59.2064 36.8856 57.8928 37.6286L53.5069 30.3292Z" fill="#3345A4"/>
<path d="M30.705 37.506C28.2208 36.0134 26.4328 34.5569 25.3409 33.1367C24.232 31.7062 23.5284 30.0445 23.23 28.1515C22.9317 26.2586 22.5428 24.7281 22.0636 23.5602C21.5775 22.365 20.807 21.4504 19.7521 20.8166C17.1829 19.2728 15.2337 19.6069 13.9047 21.8188C13.2913 22.8397 13.1698 23.8898 13.5401 24.9692C13.9105 26.0486 14.7235 26.9887 15.9792 27.7895L10.7959 36.416C7.41338 34.3373 5.41166 31.6756 4.79073 28.4309C4.15279 25.1761 4.97885 21.643 7.26892 17.8317C9.54877 14.0374 12.1886 11.6288 15.1884 10.606C18.1984 9.56623 21.3198 10.0176 24.5526 11.96C25.9648 12.8086 27.0808 13.8612 27.9004 15.1179C28.72 16.3746 29.3607 17.9869 29.8225 19.9549L30.7898 24.5308C31.0885 25.845 31.5661 26.9194 32.2226 27.7538C32.8621 28.578 33.8182 29.3957 35.0909 30.2067L30.705 37.506Z" fill="#B74B4B"/>
<path d="M40.1218 35.3066C39.0698 36.2395 38.5438 37.4405 38.5438 38.9094C38.5438 40.3783 39.0698 41.5891 40.1218 42.5419C41.1937 43.4749 42.5237 43.9413 44.1117 43.9413C45.6997 43.9413 47.0197 43.4749 48.0718 42.5419C49.1437 41.5891 49.6796 40.3783 49.6796 38.9094C49.6796 37.4405 49.1437 36.2395 48.0718 35.3066C47.0197 34.3538 45.6997 33.8774 44.1117 33.8774C42.5237 33.8774 41.1937 34.3538 40.1218 35.3066Z" fill="#0E0E0E"/>
</svg>
